<svg width="185" height="54" viewBox="0 0 185 54" fill="none" xmlns="http://www.w3.org/2000/svg">
<path d="M183.972 47.7722C183.972 50.6499 181.617 52.9809 178.704 52.9809H6.30283C3.39121 52.9809 1.02783 50.6499 1.02783 47.7722V6.23422C1.02783 3.35785 3.39121 1.01868 6.30283 1.01868H178.703C181.617 1.01868 183.971 3.35785 183.971 6.23422L183.972 47.7722Z" fill="#161616"/>
<path d="M178.148 1.08169C181.321 1.08169 183.902 3.62475 183.902 6.75V47.25C183.902 50.3753 181.321 52.9183 178.148 52.9183H6.85185C3.67944 52.9183 1.09801 50.3753 1.09801 47.25V6.75C1.09801 3.62475 3.67944 1.08169 6.85185 1.08169H178.148ZM178.148 3.8147e-06H6.85185C3.08505 3.8147e-06 0 3.03919 0 6.75V47.25C0 50.9608 3.08505 54 6.85185 54H178.148C181.915 54 185 50.9608 185 47.25V6.75C185 3.03919 181.915 3.8147e-06 178.148 3.8147e-06Z" fill="#F0F0F0"/>
<path d="M41.2867 26.7083C41.2469 22.3572 44.9031 20.2404 45.0702 20.1419C42.9996 17.1678 39.7902 16.7615 38.6624 16.7291C35.9669 16.4496 33.3522 18.318 31.9791 18.318C30.5786 18.318 28.4641 16.7561 26.1852 16.802C23.2526 16.8465 20.5091 18.5192 19.0044 21.1166C15.8992 26.4126 18.2151 34.1954 21.1902 38.4762C22.6784 40.5728 24.4174 42.9137 26.6936 42.8313C28.9204 42.7409 29.7522 41.4327 32.4395 41.4327C35.1022 41.4327 35.8833 42.8313 38.2047 42.7787C40.5946 42.7409 42.0993 40.6727 43.5354 38.5572C45.2552 36.1542 45.9459 33.7877 45.9733 33.6662C45.9171 33.6473 41.3319 31.9233 41.2867 26.7083Z" fill="white"/>
<path d="M36.9015 13.913C38.0992 12.4374 38.9187 10.43 38.6912 8.39282C36.9577 8.46842 34.7897 9.57407 33.5413 11.0172C32.4368 12.2889 31.4501 14.3733 31.705 16.3335C33.6523 16.4766 35.6517 15.3656 36.9015 13.913Z" fill="white"/>
<path d="M67.2167 13.5121C67.2167 15.1011 66.7329 16.2972 65.7668 17.1004C64.872 17.8416 63.6003 18.2128 61.9531 18.2128C61.1363 18.2128 60.4374 18.1777 59.8523 18.1075V9.42567C60.6156 9.30417 61.4378 9.24207 62.3258 9.24207C63.8949 9.24207 65.0775 9.57822 65.8751 10.2505C66.7686 11.0106 67.2167 12.0973 67.2167 13.5121ZM65.7024 13.5513C65.7024 12.5212 65.4256 11.7315 64.872 11.1807C64.3183 10.6312 63.5098 10.3558 62.445 10.3558C61.9928 10.3558 61.6077 10.3855 61.2884 10.4476V17.0478C61.4652 17.0748 61.7886 17.0869 62.2587 17.0869C63.3577 17.0869 64.206 16.7859 64.8035 16.1838C65.4009 15.5817 65.7024 14.7042 65.7024 13.5513Z" fill="white"/>
<path d="M75.2455 14.8999C75.2455 15.8786 74.9618 16.6805 74.3945 17.3096C73.7997 17.9563 73.0118 18.2789 72.0278 18.2789C71.0795 18.2789 70.3245 17.9698 69.7612 17.3488C69.1994 16.7291 68.9185 15.9475 68.9185 15.0052C68.9185 14.0197 69.2076 13.211 69.7886 12.5833C70.3697 11.9555 71.1508 11.641 72.1347 11.641C73.083 11.641 73.8449 11.9501 74.4219 12.5698C74.97 13.1719 75.2455 13.9495 75.2455 14.8999ZM73.7559 14.9458C73.7559 14.3585 73.6271 13.855 73.3708 13.4351C73.0693 12.9275 72.6404 12.6737 72.0826 12.6737C71.5057 12.6737 71.0672 12.9275 70.7657 13.4351C70.5081 13.855 70.3806 14.3666 70.3806 14.9714C70.3806 15.5587 70.5095 16.0622 70.7657 16.4821C71.0768 16.9897 71.5098 17.2435 72.0689 17.2435C72.6171 17.2435 73.0474 16.9856 73.3571 16.4686C73.6229 16.0406 73.7559 15.533 73.7559 14.9458Z" fill="white"/>
<path d="M86.0112 11.7708L83.9899 18.1347H82.6744L81.8371 15.3712C81.6247 14.6814 81.452 13.9956 81.3177 13.3152H81.2917C81.167 14.0145 80.9943 14.6989 80.7723 15.3712L79.8829 18.1347H78.5523L76.6516 11.7708H78.1275L78.8579 14.7961C79.0347 15.5116 79.1799 16.1934 79.2964 16.8387H79.3225C79.4293 16.3068 79.6061 15.6291 79.8555 14.8096L80.7723 11.7721H81.9426L82.821 14.7448C83.0334 15.4698 83.2061 16.1677 83.339 16.84H83.3788C83.4761 16.1853 83.6227 15.4873 83.8173 14.7448L84.6011 11.7721H86.0112V11.7708Z" fill="white"/>
<path d="M93.4565 18.1344H92.0204V14.4894C92.0204 13.3662 91.5874 12.8046 90.7185 12.8046C90.2924 12.8046 89.9484 12.9585 89.6812 13.2676C89.4167 13.5768 89.2824 13.9413 89.2824 14.3584V18.133H87.8463V13.5889C87.8463 13.03 87.8284 12.4239 87.7942 11.7678H89.0563L89.1234 12.7627H89.1632C89.3304 12.4536 89.5798 12.1984 89.9073 11.9946C90.2965 11.757 90.7323 11.6368 91.2091 11.6368C91.8121 11.6368 92.3137 11.8285 92.7124 12.2133C93.2085 12.6844 93.4565 13.3878 93.4565 14.322V18.1344Z" fill="white"/>
<path d="M97.4167 18.1345H95.9819V8.85059H97.4167V18.1345Z" fill="white"/>
<path d="M105.872 14.8999C105.872 15.8786 105.588 16.6805 105.021 17.3096C104.426 17.9563 103.637 18.2789 102.654 18.2789C101.705 18.2789 100.95 17.9698 100.388 17.3488C99.8258 16.7291 99.5449 15.9475 99.5449 15.0052C99.5449 14.0197 99.8341 13.211 100.415 12.5833C100.996 11.9555 101.777 11.641 102.76 11.641C103.709 11.641 104.47 11.9501 105.048 12.5698C105.596 13.1719 105.872 13.9495 105.872 14.8999ZM104.381 14.9458C104.381 14.3585 104.252 13.855 103.996 13.4351C103.696 12.9275 103.265 12.6737 102.709 12.6737C102.131 12.6737 101.692 12.9275 101.392 13.4351C101.135 13.855 101.007 14.3666 101.007 14.9714C101.007 15.5587 101.136 16.0622 101.392 16.4821C101.703 16.9897 102.136 17.2435 102.695 17.2435C103.244 17.2435 103.672 16.9856 103.982 16.4686C104.249 16.0406 104.381 15.533 104.381 14.9458Z" fill="white"/>
<path d="M112.823 18.1345H111.533L111.426 17.4014H111.386C110.945 17.986 110.316 18.2789 109.499 18.2789C108.89 18.2789 108.396 18.0859 108.025 17.7025C107.688 17.3542 107.519 16.9208 107.519 16.4065C107.519 15.6289 107.848 15.0362 108.51 14.6258C109.171 14.2154 110.1 14.0143 111.296 14.0237V13.9049C111.296 13.0666 110.849 12.6481 109.954 12.6481C109.317 12.6481 108.755 12.806 108.27 13.1192L107.978 12.1904C108.579 11.8246 109.32 11.641 110.194 11.641C111.883 11.641 112.729 12.5185 112.729 14.2735V16.6171C112.729 17.2529 112.761 17.7592 112.823 18.1345ZM111.332 15.9475V14.966C109.748 14.939 108.955 15.367 108.955 16.2485C108.955 16.5806 109.046 16.829 109.231 16.9951C109.416 17.1611 109.652 17.2435 109.933 17.2435C110.248 17.2435 110.542 17.1449 110.811 16.9492C111.081 16.7521 111.247 16.5023 111.308 16.1959C111.323 16.127 111.332 16.0433 111.332 15.9475Z" fill="white"/>
<path d="M120.983 18.1345H119.709L119.641 17.1126H119.602C119.195 17.8902 118.501 18.279 117.527 18.279C116.749 18.279 116.1 17.9779 115.587 17.3758C115.073 16.7737 114.816 15.9921 114.816 15.0322C114.816 14.0022 115.095 13.1679 115.654 12.5307C116.195 11.9367 116.858 11.6397 117.648 11.6397C118.515 11.6397 119.122 11.9272 119.467 12.5037H119.495V8.85059H120.932V16.42C120.932 17.0397 120.949 17.6107 120.983 18.1345ZM119.495 15.4507V14.3896C119.495 14.206 119.481 14.0575 119.455 13.9441C119.374 13.6039 119.2 13.3177 118.936 13.0869C118.669 12.856 118.346 12.7399 117.975 12.7399C117.439 12.7399 117.02 12.9492 116.712 13.369C116.406 13.7889 116.251 14.3248 116.251 14.9796C116.251 15.6087 116.398 16.119 116.692 16.5118C117.004 16.9303 117.423 17.1396 117.948 17.1396C118.419 17.1396 118.796 16.9654 119.082 16.6158C119.359 16.2931 119.495 15.9043 119.495 15.4507Z" fill="white"/>
<path d="M133.266 14.8999C133.266 15.8786 132.982 16.6805 132.415 17.3096C131.82 17.9563 131.033 18.2789 130.048 18.2789C129.101 18.2789 128.346 17.9698 127.782 17.3488C127.22 16.7291 126.939 15.9475 126.939 15.0052C126.939 14.0197 127.228 13.211 127.809 12.5833C128.39 11.9555 129.171 11.641 130.156 11.641C131.103 11.641 131.867 11.9501 132.442 12.5698C132.99 13.1719 133.266 13.9495 133.266 14.8999ZM131.778 14.9458C131.778 14.3585 131.649 13.855 131.392 13.4351C131.09 12.9275 130.662 12.6737 130.103 12.6737C129.527 12.6737 129.089 12.9275 128.786 13.4351C128.528 13.855 128.401 14.3666 128.401 14.9714C128.401 15.5587 128.53 16.0622 128.786 16.4821C129.097 16.9897 129.53 17.2435 130.089 17.2435C130.637 17.2435 131.069 16.9856 131.379 16.4686C131.643 16.0406 131.778 15.533 131.778 14.9458Z" fill="white"/>
<path d="M140.988 18.1344H139.553V14.4894C139.553 13.3662 139.12 12.8046 138.25 12.8046C137.824 12.8046 137.48 12.9585 137.214 13.2676C136.948 13.5768 136.815 13.9413 136.815 14.3584V18.133H135.378V13.5889C135.378 13.03 135.361 12.4239 135.327 11.7678H136.588L136.655 12.7627H136.695C136.863 12.4536 137.112 12.1984 137.439 11.9946C137.829 11.757 138.264 11.6368 138.742 11.6368C139.343 11.6368 139.845 11.8285 140.244 12.2133C140.741 12.6844 140.988 13.3878 140.988 14.322V18.1344Z" fill="white"/>
<path d="M150.653 12.8303H149.072V15.9218C149.072 16.7075 149.353 17.1004 149.909 17.1004C150.167 17.1004 150.38 17.0788 150.549 17.0342L150.586 18.1075C150.302 18.2128 149.93 18.2654 149.47 18.2654C148.903 18.2654 148.462 18.0953 148.143 17.7551C147.822 17.4149 147.663 16.8425 147.663 16.0393V12.8303H146.719V11.7706H147.663V10.6042L149.07 10.1857V11.7692H150.652V12.8303H150.653Z" fill="white"/>
<path d="M158.256 18.1345H156.818V14.5165C156.818 13.3758 156.385 12.8047 155.518 12.8047C154.852 12.8047 154.397 13.1355 154.147 13.797C154.105 13.936 154.08 14.1061 154.08 14.3059V18.1332H152.646V8.85059H154.08V12.6859H154.108C154.56 11.988 155.208 11.6397 156.048 11.6397C156.643 11.6397 157.135 11.8314 157.525 12.2161C158.012 12.6954 158.256 13.4082 158.256 14.3505V18.1345Z" fill="white"/>
<path d="M166.098 14.6514C166.098 14.9052 166.079 15.1185 166.045 15.2927H161.738C161.757 15.9218 161.963 16.401 162.361 16.7331C162.726 17.0301 163.196 17.1786 163.772 17.1786C164.409 17.1786 164.99 17.0787 165.513 16.8776L165.738 17.8604C165.125 18.1223 164.405 18.2532 163.57 18.2532C162.57 18.2532 161.782 17.963 161.212 17.3825C160.639 16.802 160.355 16.023 160.355 15.0456C160.355 14.0858 160.62 13.2866 161.153 12.6494C161.709 11.969 162.461 11.6288 163.411 11.6288C164.34 11.6288 165.046 11.969 165.523 12.6494C165.908 13.1894 166.098 13.8576 166.098 14.6514ZM164.728 14.2856C164.739 13.8657 164.644 13.5039 164.45 13.1988C164.2 12.806 163.821 12.6089 163.307 12.6089C162.838 12.6089 162.456 12.8006 162.164 13.1853C161.926 13.4918 161.785 13.8576 161.738 14.2856H164.728Z" fill="white"/>
<path d="M73.5135 42.5305H70.4014L68.6967 37.2533H62.7712L61.1473 42.5305H58.1174L63.9881 24.5647H67.6141L73.5135 42.5305ZM68.1828 35.0393L66.6411 30.3481C66.4781 29.8688 66.1725 28.7402 65.7216 26.9636H65.6668C65.4873 27.7277 65.1981 28.8563 64.8007 30.3481L63.2865 35.0393H68.1828Z" fill="white"/>
<path d="M88.6109 35.8941C88.6109 38.0973 88.0065 39.8388 86.7979 41.1173C85.7153 42.2553 84.3709 42.8237 82.7662 42.8237C81.0341 42.8237 79.7898 42.2108 79.032 40.985H78.9772V47.8092H76.0555V33.8408C76.0555 32.4557 76.0185 31.0341 75.9473 29.5761H78.5167L78.6798 31.6295H78.7346C79.7089 30.0824 81.1876 29.3102 83.1719 29.3102C84.7231 29.3102 86.0181 29.9136 87.0541 31.1219C88.0929 32.3315 88.6109 33.9218 88.6109 35.8941ZM85.6344 35.9994C85.6344 34.7385 85.3466 33.699 84.7683 32.8809C84.1366 32.0277 83.2883 31.6011 82.2249 31.6011C81.5041 31.6011 80.8491 31.8387 80.2639 32.3072C79.6774 32.7797 79.2937 33.3966 79.1142 34.1607C79.0237 34.5171 78.9785 34.8087 78.9785 35.0382V37.1982C78.9785 38.1405 79.2718 38.9357 79.8583 39.585C80.4448 40.2344 81.2067 40.5584 82.1441 40.5584C83.2445 40.5584 84.101 40.1399 84.7135 39.3056C85.3274 38.4699 85.6344 37.3683 85.6344 35.9994Z" fill="white"/>
<path d="M103.736 35.8941C103.736 38.0973 103.131 39.8388 101.921 41.1173C100.84 42.2553 99.4958 42.8237 97.8911 42.8237C96.1589 42.8237 94.9146 42.2108 94.1582 40.985H94.1034V47.8092H91.1817V33.8408C91.1817 32.4557 91.1447 31.0341 91.0735 29.5761H93.6429L93.806 31.6295H93.8608C94.8338 30.0824 96.3124 29.3102 98.2981 29.3102C99.848 29.3102 101.143 29.9136 102.182 31.1219C103.216 32.3315 103.736 33.9218 103.736 35.8941ZM100.759 35.9994C100.759 34.7385 100.47 33.699 99.8918 32.8809C99.2601 32.0277 98.4146 31.6011 97.3498 31.6011C96.6276 31.6011 95.9739 31.8387 95.3874 32.3072C94.8009 32.7797 94.4186 33.3966 94.239 34.1607C94.15 34.5171 94.1034 34.8087 94.1034 35.0382V37.1982C94.1034 38.1405 94.3966 38.9357 94.9804 39.585C95.5669 40.233 96.3289 40.5584 97.2689 40.5584C98.3693 40.5584 99.2258 40.1399 99.8384 39.3056C100.452 38.4699 100.759 37.3683 100.759 35.9994Z" fill="white"/>
<path d="M120.646 37.4924C120.646 39.0206 120.108 40.2639 119.026 41.2238C117.838 42.2727 116.184 42.7965 114.059 42.7965C112.096 42.7965 110.523 42.4239 109.332 41.6774L110.009 39.2784C111.292 40.0425 112.699 40.4259 114.233 40.4259C115.333 40.4259 116.19 40.1802 116.805 39.6915C117.417 39.2028 117.723 38.5467 117.723 37.7286C117.723 36.9996 117.471 36.3854 116.965 35.8872C116.462 35.3891 115.622 34.926 114.449 34.4981C111.256 33.3249 109.661 31.6064 109.661 29.3465C109.661 27.8696 110.22 26.6586 111.34 25.7163C112.455 24.7727 113.944 24.3015 115.805 24.3015C117.464 24.3015 118.843 24.5864 119.943 25.1547L119.213 27.501C118.185 26.9502 117.023 26.6748 115.722 26.6748C114.695 26.6748 113.892 26.9246 113.316 27.4214C112.829 27.8655 112.586 28.4069 112.586 29.0481C112.586 29.7582 112.864 30.3455 113.423 30.8072C113.909 31.2338 114.793 31.6955 116.076 32.1936C117.645 32.816 118.797 33.5436 119.539 34.3779C120.277 35.2095 120.646 36.2504 120.646 37.4924Z" fill="white"/>
<path d="M130.306 31.7359H127.085V38.0255C127.085 39.6253 127.653 40.4245 128.79 40.4245C129.312 40.4245 129.745 40.3799 130.088 40.2908L130.169 42.4765C129.593 42.6884 128.835 42.7951 127.897 42.7951C126.743 42.7951 125.841 42.4481 125.19 41.7556C124.542 41.0617 124.216 39.898 124.216 38.2631V31.7332H122.297V29.5732H124.216V27.2012L127.085 26.348V29.5732H130.306V31.7359Z" fill="white"/>
<path d="M144.836 35.9465C144.836 37.9378 144.257 39.5726 143.104 40.8511C141.893 42.1673 140.287 42.8234 138.285 42.8234C136.356 42.8234 134.82 42.193 133.674 40.9321C132.528 39.6712 131.956 38.0795 131.956 36.1612C131.956 34.1537 132.545 32.5094 133.727 31.231C134.907 29.9512 136.5 29.3113 138.502 29.3113C140.431 29.3113 141.984 29.9417 143.156 31.204C144.277 32.4284 144.836 34.0093 144.836 35.9465ZM141.804 36.0397C141.804 34.8449 141.545 33.8203 141.021 32.9657C140.408 31.9316 139.532 31.4159 138.398 31.4159C137.223 31.4159 136.331 31.933 135.719 32.9657C135.194 33.8216 134.935 34.8625 134.935 36.0937C134.935 37.2884 135.194 38.3131 135.719 39.1663C136.35 40.2004 137.233 40.7161 138.372 40.7161C139.487 40.7161 140.363 40.1896 140.995 39.1393C141.533 38.2685 141.804 37.2331 141.804 36.0397Z" fill="white"/>
<path d="M154.332 32.1074C154.043 32.0547 153.735 32.0277 153.411 32.0277C152.384 32.0277 151.589 32.4098 151.03 33.1752C150.543 33.8502 150.299 34.7034 150.299 35.7335V42.5307H147.379L147.407 33.6558C147.407 32.1627 147.37 30.8033 147.297 29.5775H149.842L149.949 32.0561H150.029C150.338 31.2042 150.824 30.5184 151.49 30.0041C152.141 29.541 152.844 29.3102 153.602 29.3102C153.872 29.3102 154.116 29.3291 154.332 29.3628V32.1074Z" fill="white"/>
<path d="M167.399 35.4405C167.399 35.9562 167.365 36.3909 167.292 36.746H158.527C158.561 38.0258 158.985 39.0045 159.799 39.6795C160.537 40.283 161.493 40.5854 162.666 40.5854C163.963 40.5854 165.147 40.3815 166.212 39.9725L166.67 41.9705C165.426 42.5051 163.957 42.771 162.261 42.771C160.222 42.771 158.622 42.1797 157.457 40.9985C156.295 39.8172 155.712 38.231 155.712 36.2411C155.712 34.2876 156.254 32.6609 157.338 31.3635C158.472 29.9784 160.006 29.2859 161.935 29.2859C163.83 29.2859 165.265 29.9784 166.24 31.3635C167.011 32.4638 167.399 33.8246 167.399 35.4405ZM164.613 34.694C164.632 33.8408 164.442 33.1037 164.046 32.4813C163.54 31.6808 162.763 31.2812 161.717 31.2812C160.762 31.2812 159.985 31.6713 159.392 32.4543C158.905 33.0767 158.616 33.8232 158.527 34.6926H164.613V34.694Z" fill="white"/>
</svg>
