<svg width="28" height="28" viewBox="0 0 28 28" fill="none" xmlns="http://www.w3.org/2000/svg">
<path d="M20.3858 20.4861C20.5667 20.4861 20.7133 20.3395 20.7133 20.1586L20.7133 8.06181C20.7133 7.96003 20.6933 7.85923 20.6544 7.76519C20.6154 7.67115 20.5584 7.5857 20.4864 7.51373C20.4144 7.44175 20.329 7.38467 20.2349 7.34573C20.1409 7.30679 20.0401 7.28677 19.9383 7.2868L7.84149 7.2868C7.66062 7.2868 7.51399 7.43344 7.51401 7.61432L7.51409 8.5095C7.5141 8.69036 7.66072 8.83696 7.84157 8.83696L18.0669 8.83696L7.19715 19.7067C7.06926 19.8346 7.06926 20.042 7.19715 20.1699L7.83025 20.803C7.95814 20.9309 8.1655 20.9309 8.29339 20.803L19.1631 9.9332L19.1633 20.1586C19.1633 20.3395 19.3099 20.4861 19.4908 20.4861L20.3858 20.4861Z" fill="#1252D3"/>
</svg>
