<svg width="185" height="54" viewBox="0 0 185 54" fill="none" xmlns="http://www.w3.org/2000/svg">
<path d="M178.148 54H6.85185C3.08505 54 0 50.9608 0 47.25V6.75C0 3.03919 3.08505 0 6.85185 0H178.148C181.915 0 185 3.03919 185 6.75V47.25C185 50.9608 181.915 54 178.148 54Z" fill="#161616"/>
<path d="M178.148 1.08169C181.321 1.08169 183.902 3.62475 183.902 6.75V47.25C183.902 50.3753 181.321 52.9183 178.148 52.9183H6.85185C3.67944 52.9183 1.09801 50.3753 1.09801 47.25V6.75C1.09801 3.62475 3.67944 1.08169 6.85185 1.08169H178.148ZM178.148 0H6.85185C3.08505 0 0 3.03919 0 6.75V47.25C0 50.9608 3.08505 54 6.85185 54H178.148C181.915 54 185 50.9608 185 47.25V6.75C185 3.03919 181.915 0 178.148 0Z" fill="#F0F0F0"/>
<path d="M13.272 10.1775C12.8694 10.5926 12.6365 11.239 12.6365 12.076V41.9312C12.6365 42.7682 12.8694 43.4145 13.272 43.8297L13.3713 43.9208L30.3536 27.1977V26.8028L13.3713 10.0797L13.272 10.1775Z" fill="white"/>
<path d="M38.0637 32.7745L32.4092 27.1974V26.8025L38.0705 21.2253L38.1973 21.2979L44.9018 25.0559C46.8152 26.1224 46.8152 27.8774 44.9018 28.9507L38.1973 32.702L38.0637 32.7745Z" fill="white"/>
<path d="M37.1696 33.7405L31.3815 28.0385L14.2998 44.8679C14.9353 45.526 15.9717 45.6054 17.1502 44.9472L37.1696 33.7405Z" fill="white"/>
<path d="M37.1696 20.2596L17.1502 9.05292C15.9717 8.40155 14.9353 8.48086 14.2998 9.13898L31.3815 25.9617L37.1696 20.2596Z" fill="white"/>
<path d="M64.9795 13.8296C64.9795 14.9569 64.6369 15.8597 63.962 16.533C63.186 17.3312 62.1754 17.7328 60.9369 17.7328C59.7533 17.7328 58.7426 17.3244 57.9135 16.5195C57.0827 15.7027 56.6682 14.7004 56.6682 13.5006C56.6682 12.3007 57.0827 11.2984 57.9135 10.4884C58.7426 9.67669 59.7533 9.26831 60.9369 9.26831C61.5262 9.26831 62.088 9.38812 62.6242 9.61087C63.1586 9.83531 63.5937 10.1391 63.9089 10.5137L63.1929 11.2258C62.643 10.5863 61.8945 10.2707 60.9369 10.2707C60.0736 10.2707 59.325 10.5677 58.6895 11.1667C58.0609 11.7675 57.7457 12.5454 57.7457 13.5006C57.7457 14.4557 58.0609 15.2404 58.6895 15.8411C59.325 16.4334 60.0736 16.7372 60.9369 16.7372C61.8534 16.7372 62.6242 16.4334 63.2323 15.8344C63.6331 15.4378 63.8609 14.8911 63.9209 14.1924H60.9369V13.2171H64.9178C64.9658 13.428 64.9795 13.6322 64.9795 13.8296Z" fill="white" stroke="white" stroke-width="0.164444" stroke-miterlimit="10"/>
<path d="M71.2951 10.4478H67.5557V13.0128H70.9268V13.9882H67.5557V16.5532H71.2951V17.5471H66.4971V9.45386H71.2951V10.4478Z" fill="white" stroke="white" stroke-width="0.164444" stroke-miterlimit="10"/>
<path d="M75.7522 17.5471H74.6936V10.4478H72.3999V9.45386H78.0475V10.4478H75.7522V17.5471Z" fill="white" stroke="white" stroke-width="0.164444" stroke-miterlimit="10"/>
<path d="M82.1348 17.5471V9.45386H83.1917V17.5471H82.1348Z" fill="white" stroke="white" stroke-width="0.164444" stroke-miterlimit="10"/>
<path d="M87.8767 17.5471H86.8266V10.4478H84.5244V9.45386H90.1789V10.4478H87.8767V17.5471Z" fill="white" stroke="white" stroke-width="0.164444" stroke-miterlimit="10"/>
<path d="M100.871 16.506C100.061 17.3244 99.0573 17.7328 97.8599 17.7328C96.6557 17.7328 95.6519 17.3244 94.8417 16.506C94.0332 15.6892 93.6306 14.6869 93.6306 13.5006C93.6306 12.3142 94.0332 11.3119 94.8417 10.4951C95.6519 9.67669 96.6557 9.26831 97.8599 9.26831C99.0504 9.26831 100.054 9.67669 100.864 10.5019C101.68 11.3254 102.082 12.321 102.082 13.5006C102.082 14.6869 101.68 15.6892 100.871 16.506ZM95.6245 15.8276C96.2343 16.4334 96.976 16.7372 97.8599 16.7372C98.737 16.7372 99.4855 16.4334 100.088 15.8276C100.697 15.2218 101.005 14.4439 101.005 13.5006C101.005 12.5572 100.697 11.7793 100.088 11.1735C99.4855 10.5677 98.737 10.2639 97.8599 10.2639C96.976 10.2639 96.2343 10.5677 95.6245 11.1735C95.0164 11.7793 94.7081 12.5572 94.7081 13.5006C94.7081 14.4439 95.0164 15.2218 95.6245 15.8276Z" fill="white" stroke="white" stroke-width="0.164444" stroke-miterlimit="10"/>
<path d="M103.567 17.5471V9.45386H104.852L108.847 15.7482H108.893L108.847 14.1924V9.45386H109.904V17.5471H108.8L104.617 10.9422H104.571L104.617 12.5049V17.5471H103.567Z" fill="white" stroke="white" stroke-width="0.164444" stroke-miterlimit="10"/>
<path d="M93.3702 29.3659C90.1515 29.3659 87.5221 31.779 87.5221 35.1085C87.5221 38.4109 90.1515 40.8493 93.3702 40.8493C96.5957 40.8493 99.2251 38.4109 99.2251 35.1085C99.2251 31.779 96.5957 29.3659 93.3702 29.3659ZM93.3702 38.5881C91.6041 38.5881 90.0847 37.152 90.0847 35.1085C90.0847 33.0379 91.6041 31.6271 93.3702 31.6271C95.1362 31.6271 96.6625 33.0379 96.6625 35.1085C96.6625 37.152 95.1362 38.5881 93.3702 38.5881ZM80.6103 29.3659C77.3848 29.3659 74.7623 31.779 74.7623 35.1085C74.7623 38.4109 77.3848 40.8493 80.6103 40.8493C83.8341 40.8493 86.4584 38.4109 86.4584 35.1085C86.4584 31.779 83.8341 29.3659 80.6103 29.3659ZM80.6103 38.5881C78.8425 38.5881 77.318 37.152 77.318 35.1085C77.318 33.0379 78.8425 31.6271 80.6103 31.6271C82.3764 31.6271 83.8958 33.0379 83.8958 35.1085C83.8958 37.152 82.3764 38.5881 80.6103 38.5881ZM65.4266 31.126V33.5661H71.3415C71.1685 34.9296 70.706 35.932 69.9968 36.6306C69.1335 37.4743 67.7888 38.4109 65.4266 38.4109C61.7866 38.4109 58.9362 35.5168 58.9362 31.9309C58.9362 28.345 61.7866 25.4509 65.4266 25.4509C67.3948 25.4509 68.8268 26.2086 69.8837 27.1907L71.6292 25.4711C70.151 24.0806 68.1845 23.0125 65.4266 23.0125C60.435 23.0125 56.24 27.0135 56.24 31.9309C56.24 36.8483 60.435 40.8493 65.4266 40.8493C68.1245 40.8493 70.151 39.9786 71.744 38.3451C73.3765 36.7369 73.8852 34.4756 73.8852 32.6498C73.8852 32.0828 73.8373 31.5613 73.7516 31.126H65.4266ZM127.515 33.0176C127.033 31.7335 125.548 29.3659 122.523 29.3659C119.525 29.3659 117.03 31.693 117.03 35.1085C117.03 38.3248 119.5 40.8493 122.811 40.8493C125.488 40.8493 127.033 39.2411 127.669 38.3046L125.682 37.0001C125.019 37.9553 124.116 38.5881 122.811 38.5881C121.514 38.5881 120.584 38.0025 119.988 36.8483L127.784 33.6707L127.515 33.0176ZM119.567 34.9296C119.5 32.7156 121.312 31.5816 122.61 31.5816C123.628 31.5816 124.491 32.0828 124.779 32.8L119.567 34.9296ZM113.23 40.5H115.793V23.625H113.23V40.5ZM109.033 30.645H108.948C108.372 29.9734 107.274 29.3659 105.883 29.3659C102.964 29.3659 100.296 31.8904 100.296 35.127C100.296 38.3451 102.964 40.8493 105.883 40.8493C107.274 40.8493 108.372 40.2368 108.948 39.5449H109.033V40.3684C109.033 42.5638 107.843 43.7434 105.923 43.7434C104.357 43.7434 103.386 42.6296 102.985 41.6931L100.756 42.6094C101.399 44.1315 103.1 46.0046 105.923 46.0046C108.927 46.0046 111.462 44.2631 111.462 40.0258V29.7152H109.033V30.645ZM106.103 38.5881C104.337 38.5881 102.858 37.1318 102.858 35.127C102.858 33.1037 104.337 31.6271 106.103 31.6271C107.843 31.6271 109.215 33.1037 109.215 35.127C109.215 37.1318 107.843 38.5881 106.103 38.5881ZM139.512 23.625H133.383V40.5H135.939V34.1061H139.512C142.351 34.1061 145.134 32.0828 145.134 28.8647C145.134 25.6483 142.344 23.625 139.512 23.625ZM139.579 31.7588H135.939V25.9723H139.579C141.487 25.9723 142.577 27.5333 142.577 28.8647C142.577 30.1708 141.487 31.7588 139.579 31.7588ZM155.378 29.3338C153.531 29.3338 151.611 30.1371 150.821 31.9174L153.089 32.854C153.577 31.9174 154.475 31.6136 155.424 31.6136C156.75 31.6136 158.094 32.3983 158.115 33.7838V33.961C157.653 33.6977 156.662 33.3079 155.444 33.3079C153.002 33.3079 150.513 34.6326 150.513 37.1048C150.513 39.366 152.514 40.8223 154.763 40.8223C156.483 40.8223 157.432 40.0579 158.028 39.1686H158.115V40.473H160.583V33.9998C160.583 31.0078 158.315 29.3338 155.378 29.3338ZM155.069 38.5813C154.233 38.5813 153.069 38.173 153.069 37.152C153.069 35.8459 154.521 35.3447 155.779 35.3447C156.904 35.3447 157.432 35.5894 158.115 35.9117C157.915 37.4743 156.549 38.5813 155.069 38.5813ZM169.576 29.7034L166.639 37.0187H166.551L163.514 29.7034H160.758L165.321 39.9263L162.718 45.6148H165.388L172.42 29.7034H169.576ZM146.539 40.5H149.101V23.625H146.539V40.5Z" fill="white"/>
</svg>
