<svg width="24" height="24" viewBox="0 0 24 24" fill="none" xmlns="http://www.w3.org/2000/svg">
<path d="M17.2893 4.94744H7.77029C7.42051 4.94744 7.13695 4.66388 7.13695 4.3141V3.13333C7.13695 2.78355 7.42051 2.5 7.77029 2.5H19.3141C19.5473 2.5 19.7363 2.68904 19.7363 2.92222V21.0778C19.7363 21.311 19.5473 21.5 19.3141 21.5H7.77029C7.42051 21.5 7.13695 21.2164 7.13695 20.8667V19.6847C7.13695 19.3349 7.42051 19.0514 7.77029 19.0514H17.2893V4.94744Z" fill="#161616"/>
<path d="M4.38038 10.7652C4.45796 10.6888 4.55336 10.6496 4.66182 10.6508C5.97361 10.6575 7.28065 10.6686 8.52159 10.6698C8.63044 10.671 8.72465 10.6318 8.80105 10.5542C8.87863 10.4778 8.91782 10.3836 8.91782 10.2747V8.74761C8.91782 8.60273 8.98946 8.47725 9.11534 8.40521C9.24201 8.33238 9.38569 8.33238 9.51157 8.40521L12.3279 10.0309L15.1443 11.6566C15.2698 11.7282 15.3418 11.8541 15.3418 11.999C15.3418 12.145 15.2702 12.2693 15.1443 12.3422L12.3279 13.9679L9.51157 15.5935C9.38609 15.6652 9.2424 15.6652 9.11534 15.5935C8.98986 15.5207 8.91782 15.396 8.91782 15.2504V13.8645C8.91782 13.6468 8.74048 13.4683 8.52278 13.4683C7.28501 13.4651 5.97361 13.4505 4.65746 13.4414C4.43976 13.4402 4.26361 13.2629 4.26361 13.0452V11.0458C4.26401 10.937 4.30319 10.8428 4.38038 10.7652Z" fill="#161616"/>
</svg>
