<svg width="48" height="48" viewBox="0 0 48 48" fill="none" xmlns="http://www.w3.org/2000/svg">
<path d="M23.2842 10.1502C23.4745 9.95996 23.7326 9.85264 24.0017 9.85258C24.2708 9.85258 24.5295 9.95921 24.7198 10.1495C24.9101 10.3398 25.0168 10.5986 25.0168 10.8677L25.0188 22.9845L37.137 22.9824C37.4061 22.9824 37.6642 23.0897 37.8545 23.28C38.0447 23.4703 38.1521 23.7284 38.1521 23.9975C38.152 24.2665 38.0447 24.5247 37.8545 24.7149C37.6642 24.9052 37.4061 25.0125 37.137 25.0126L25.0188 25.0146L25.0195 37.13H25.0181C25.0182 37.2632 24.9931 37.3951 24.9422 37.5181C24.8912 37.6413 24.8162 37.7533 24.7219 37.8475C24.6277 37.9417 24.5156 38.0168 24.3925 38.0678C24.3002 38.1059 24.2029 38.1299 24.1039 38.1396L24.0037 38.1444C23.7359 38.1436 23.4792 38.0368 23.2897 37.8475C23.1003 37.658 22.9929 37.4008 22.9921 37.1328L22.9887 25.0146L10.8719 25.0126L10.8484 25.0112C10.594 24.9914 10.3561 24.8766 10.1827 24.6894C10.0092 24.5019 9.91271 24.255 9.91271 23.9995C9.91277 23.7442 10.0093 23.4985 10.1827 23.3111C10.3346 23.147 10.5358 23.0381 10.7545 23.0003L10.8491 22.9886L10.8601 22.9872L10.8719 22.9879L22.9887 22.9845L22.9873 10.867C22.9874 10.5981 23.0942 10.3404 23.2842 10.1502Z" fill="white" stroke="white" stroke-width="0.6"/>
</svg>
