<svg width="24" height="24" viewBox="0 0 24 24" fill="none" xmlns="http://www.w3.org/2000/svg">
<path d="M17.4735 17.5597C17.6285 17.5597 17.7542 17.4341 17.7542 17.279L17.7542 6.91033C17.7542 6.82309 17.7371 6.73669 17.7037 6.65609C17.6703 6.57548 17.6214 6.50224 17.5597 6.44055C17.498 6.37885 17.4248 6.32992 17.3441 6.29655C17.2635 6.26318 17.1771 6.24601 17.0899 6.24604L6.72121 6.24604C6.56617 6.24604 6.44049 6.37173 6.44051 6.52677L6.44058 7.29407C6.44059 7.44909 6.56626 7.57475 6.72128 7.57475L15.4859 7.57475L6.16891 16.8917C6.05929 17.0013 6.05929 17.179 6.16892 17.2887L6.71158 17.8313C6.8212 17.9409 6.99893 17.9409 7.10855 17.8313L16.4255 8.51438L16.4256 17.2791C16.4256 17.4341 16.5513 17.5597 16.7063 17.5597H17.4735Z" fill="#EFF2F5"/>
</svg>
