<svg width="24" height="24" viewBox="0 0 24 24" fill="none" xmlns="http://www.w3.org/2000/svg">
<path d="M11 11C13.2091 11 15 9.20914 15 7C15 4.79086 13.2091 3 11 3C8.79086 3 7 4.79086 7 7C7 9.20914 8.79086 11 11 11Z" fill="#EFF2F5"/>
<path d="M3.24701 19.0202C4.12804 15.5595 7.2652 13 11.0002 13C14.7352 13 17.8723 15.5595 18.7533 19.0202C19.0259 20.0907 18.1048 21 17.0002 21H5.00016C3.89559 21 2.97451 20.0907 3.24701 19.0202Z" fill="#EFF2F5"/>
<path d="M18 8C18.5523 8 19 8.44772 19 9V10H20C20.5523 10 21 10.4477 21 11C21 11.5523 20.5523 12 20 12H19V13C19 13.5523 18.5523 14 18 14C17.4477 14 17 13.5523 17 13V12H16C15.4477 12 15 11.5523 15 11C15 10.4477 15.4477 10 16 10H17V9C17 8.44772 17.4477 8 18 8Z" fill="#EFF2F5"/>
</svg>
