<svg width="60" height="60" viewBox="0 0 60 60" fill="none" xmlns="http://www.w3.org/2000/svg">
<g clip-path="url(#clip0_16299_636)">
<rect width="60" height="60" rx="30" fill="white"/>
<path d="M29.5925 -0.952393C12.4978 -0.952393 -1.35986 13.1184 -1.35986 30.4762C-1.35986 47.8339 12.4978 61.9048 29.5925 61.9048C46.6873 61.9048 60.5449 47.8339 60.5449 30.4762C60.5449 13.1184 46.6873 -0.952393 29.5925 -0.952393ZM41.4963 34.5062C41.4963 34.5062 44.2336 37.2497 44.9075 38.5232C44.9268 38.5494 44.9365 38.5756 44.943 38.5887C45.217 39.0568 45.2815 39.4202 45.1461 39.692C44.9204 40.1437 44.1466 40.3664 43.8822 40.386H39.0459C38.7106 40.386 38.0077 40.2976 37.1565 39.7018C36.502 39.2369 35.8572 38.4741 35.2284 37.7309C34.2902 36.6244 33.4777 35.6684 32.6587 35.6684C32.5547 35.6683 32.4513 35.6848 32.3524 35.7175C31.7334 35.9205 30.9402 36.8175 30.9402 39.2074C30.9402 39.9539 30.3599 40.3827 29.9504 40.3827H27.7354C26.9809 40.3827 23.0506 40.1143 19.5685 36.3854C15.3061 31.8184 11.4693 22.6583 11.437 22.5732C11.1952 21.9806 11.6949 21.6631 12.2398 21.6631H17.1245C17.7758 21.6631 17.9886 22.0658 18.1369 22.4226C18.311 22.8384 18.9494 24.4917 19.9973 26.3512C21.6964 29.3827 22.7379 30.6137 23.5729 30.6137C23.7295 30.6118 23.8833 30.5714 24.0211 30.4958C25.1109 29.8803 24.9077 25.9354 24.8594 25.117C24.8594 24.9631 24.8562 23.3524 24.2984 22.5797C23.8986 22.0199 23.2183 21.8071 22.8056 21.7286C22.9726 21.4945 23.1927 21.3047 23.4472 21.1753C24.1952 20.7955 25.5429 20.7399 26.881 20.7399H27.6258C29.0766 20.7595 29.4507 20.8545 29.9762 20.9887C31.0402 21.2473 31.0628 21.9446 30.9693 24.3312C30.9402 25.0089 30.9112 25.775 30.9112 26.6786C30.9112 26.875 30.9015 27.0845 30.9015 27.3071C30.8693 28.5217 30.8306 29.9 31.6754 30.4664C31.7855 30.5365 31.9129 30.5739 32.0429 30.5744C32.3363 30.5744 33.2197 30.5744 35.6121 26.4068C36.3499 25.0654 36.9911 23.6715 37.5305 22.236C37.5789 22.1509 37.7207 21.889 37.8884 21.7875C38.0121 21.7234 38.1493 21.6909 38.2882 21.6925H44.0305C44.656 21.6925 45.0848 21.7875 45.1654 22.033C45.3073 22.4226 45.1396 23.611 42.5184 27.2155L41.348 28.7836C38.9717 31.9461 38.9717 32.1065 41.4963 34.5062Z" fill="#0679FE"/>
</g>
<defs>
<clipPath id="clip0_16299_636">
<rect width="60" height="60" rx="30" fill="white"/>
</clipPath>
</defs>
</svg>
